<svg width="24" height="24" viewBox="0 0 24 24" fill="none" xmlns="http://www.w3.org/2000/svg">
<path d="M13 3.05493C12.6717 3.01863 12.338 3 12 3C7.02944 3 3 7.02944 3 12C3 16.9706 7.02944 21 12 21C16.9706 21 21 16.9706 21 12C21 11.662 20.9814 11.3283 20.9451 11" stroke="black" stroke-width="2"/>
<path d="M11.5 7.02441C8.97334 7.27528 7 9.40705 7 11.9997C7 14.7612 9.23858 16.9997 12 16.9997C14.5926 16.9997 16.7243 15.0265 16.9753 12.5" stroke="black" stroke-width="2"/>
<path d="M18.5 5.5L17.5 2.5L14 6V10H18L21.5 6.5L18.5 5.5Z" stroke="black" stroke-width="2"/>
<path d="M14 10L11.5 12.5" stroke="black" stroke-width="2"/>
</svg>
